<svg height="512" viewBox="0 0 60 54" width="512" xmlns="http://www.w3.org/2000/svg"><g id="031---No-Touching" transform="translate(-1)"><path id="Shape" d="m55.542 54h-49.084c-1.9622593-.0201533-3.76617911-1.0809286-4.73767676-2.7859389-.97149764-1.7050103-.96438627-3.7976928.01867676-5.4960611l24.543-42.962c.9599682-1.70292925 2.7631325-2.75638875 4.718-2.75638875s3.7580318 1.0534595 4.718 2.75638875l24.543 42.962c.983063 1.6983683.9901744 3.7910508.0186768 5.4960611-.9714977 1.7050103-2.7754175 2.7657856-4.7376768 2.7859389zm-27.524-50.252c.1 0 .338-.592-24.542 42.962-.62887052 1.0793966-.63834868 2.4112854-.02490375 3.4995227.61344492 1.0882373 1.75784711 1.7696778 3.00690375 1.7904773h49.084c1.2490566-.0207995 2.3934588-.70224 3.0069038-1.7904773.6134449-1.0882373.6039667-2.4201261-.0249038-3.4995227l-24.542-42.962c-.6041156-1.07975946-1.7447304-1.74859807-2.982-1.74859807s-2.3778844.66883861-2.982 1.74859807z"/><path id="Shape" d="m37.7 50h-10.4c-1.2581718.0094382-2.2868085-1.0008619-2.3-2.259v-.231c-.0037241-.7429393-.3163733-1.450838-.863-1.954-1.8049892-1.5665057-3.2829183-3.4739825-4.349-5.613-1.256-2.989-2.771-6.6-3.93-7.7-1.932-1.843-.324-4.243 2.013-4.243 1.48 0 3.016 1.251 4.98 4.056.3803924.5485632.8222623 1.0518319 1.317 1.5.0837241.0658484.1924782.0908719.2965617.0682367.1040835-.0226353.1926229-.0905646.2414383-.1852367.412-1.269.3-.735.294-16.013.02457-.9611109.5096523-1.8518207 1.303706-2.3938693.7940536-.5420487 1.8002661-.6693485 2.704294-.3421307.1520451-1.5503216 1.462544-2.7280646 3.0202426-2.7142865 1.5576986.013778 2.8471595 1.214518 2.9717574 2.7672865.9013824-.3193066 1.9009891-.1897625 2.6912002.3487664s1.2763455 1.4215173 1.3087998 2.3772336v4.143c.9218594-.3064054 1.9346305-.1539414 2.7254232.4102892.7907926.5642305 1.2644272 1.4723169 1.2745768 2.4437108v15.09c0 .157-.03 3.876-2.6 6.111-.1415058.1523123-.2750184.3118599-.4.478v1.6c-.0153769 1.25657-1.0433714 2.2644516-2.3 2.255zm-19.829-20c-.3388512-.0150251-.6628903.1398686-.864.413-.032.081.092.25.23.381 1.462 1.392 2.934 4.9 4.357 8.285.9674127 1.9044777 2.2913607 3.6055812 3.9 5.011 1.0132041.9372027 1.5638018 2.2720184 1.506 3.651.0122449.1538976.1459627.2693407.3.259h10.4c.1540373.0103407.2877551-.1051024.3-.259 0-2.117-.057-2.188.2-2.53.265877-.3669142.5586852-.7135376.876-1.037 1.2034016-1.2398764 1.8910863-2.8904626 1.924-4.618v-15.112c-.0178838-.3935399-.2580446-.7426469-.6191753-.9000574s-.7803523-.0957166-1.0808247.1590574c-.1860155.1591719-.2951751.3902263-.3.635v6.662c0 .5522847-.4477153 1-1 1s-1-.4477153-1-1v-13.531c-.0440703-.5215506-.4932148-.9145521-1.016-.889-.5165564-.0243896-.9559986.3726268-.984.889v12.531c0 .5522847-.4477153 1-1 1s-1-.4477153-1-1v-15.1c-.0514346-.5137041-.4837274-.9048751-1-.9048751s-.9485654.391171-1 .9048751v15.1c0 .5522847-.4477153 1-1 1s-1-.4477153-1-1v-12.572c0-.5522847-.4477153-1-1-1s-1 .4477153-1 1c0 14.92.164 14.916-.4 16.649-.2622533.7332847-.870746 1.2890212-1.6247444 1.4838792s-1.5555583.0035256-2.1402556-.5108792c-.6110812-.5523407-1.1566606-1.1730798-1.626-1.85-2.021-2.888-3.009-3.2-3.338-3.2z"/></g></svg>